# xmcd
#
# Track frame offsets:
#	150
#	18900
#	33375
#	55590
#	67430
#	78302
#	92595
#	105190
#	118550
#	130950
#	143592
#	158095
#	168975
#	179285
#	190907
#	201932
#	213382
#	226050
#	239375
#	250677
#	264362
#	286265
#	299087
#	314700
#	328495
#
# Disc length: 4543
#
# Revision: 1
# Processed by: cddbd v1.5.1PL0 Copyright (c) Steve Scherf et al.
# Submitted via: audiograbber 1.80.04
# Normalized: r0:TDELIM( - )
#
DISCID=6a11bd19
DTITLE=Various Artist - Play Me The Blues - The Legendary Blues Singers 2
DYEAR=1900
DGENRE=
TTITLE0=Muddy Waters - I Got My Mojo Workin´ (Live)
TTITLE1=John Mayall - Why Worry
TTITLE2=Howlin´Wolf - Wang Dang Doodle
TTITLE3=John Lee Hooker - Crawlin´King Snake
TTITLE4=Eric Clapton - Snake Drive
TTITLE5=John Mayall - John Lee Boogie
TTITLE6=Sonny Boy Williamson - Keep It To Yourself
TTITLE7=Lightnin´ Hopkins - Mojo Hand
TTITLE8=Elmore James - Standing on the Crossroads
TTITLE9=Little Walter - Everything´s Gonna Be Alright
TTITLE10=B.B. King - How Blue Can You Be
TTITLE11=Howlin´ Wolf - You´ll Be Mine
TTITLE12=Eric Clapton - West Coast Idea
TTITLE13=Muddy Waters - Goin´ Home
TTITLE14=John Lee Hooker - Bottle Up And Go
TTITLE15=Little Walter - As Long As I Have You
TTITLE16=Sonny Boy Williamson - All My Love In Vain
TTITLE17=Howlin´ Wolf - Highway 49
TTITLE18=Muddy Waters - Just A Dream
TTITLE19=B.B. KIng - Paying The Cost To Be The Boss
TTITLE20=John Mayall - A Big Man
TTITLE21=Elmore James - Baby What´s Wrong
TTITLE22=Johnny Winter - Self Destruction Blues
TTITLE23=Little Walter - Blues With A Feeling
TTITLE24=Howlin´ Wolf - Goin´ Back Home
EXTD=
EXTT0=
EXTT1=
EXTT2=
EXTT3=
EXTT4=
EXTT5=
EXTT6=
EXTT7=
EXTT8=
EXTT9=
EXTT10=
EXTT11=
EXTT12=
EXTT13=
EXTT14=
EXTT15=
EXTT16=
EXTT17=
EXTT18=
EXTT19=
EXTT20=
EXTT21=
EXTT22=
EXTT23=
EXTT24=
PLAYORDER=
